<!DOCTYPE svg PUBLIC "-//W3C//DTD SVG 1.1//EN" "http://www.w3.org/Graphics/SVG/1.1/DTD/svg11.dtd">
<!-- Uploaded to: SVG Repo, www.svgrepo.com, Transformed by: SVG Repo Mixer Tools -->
<svg fill="#000000" width="800px" height="800px" viewBox="0 0 24 24" id="meat" data-name="Flat Line" xmlns="http://www.w3.org/2000/svg" class="icon flat-line">
<g id="SVGRepo_bgCarrier" stroke-width="0"/>
<g id="SVGRepo_tracerCarrier" stroke-linecap="round" stroke-linejoin="round"/>
<g id="SVGRepo_iconCarrier">
<path id="secondary" d="M14,3A6,6,0,0,0,8,8.31a8.49,8.49,0,0,1-.85,3.28,16.92,16.92,0,0,1-2,2.55A4.07,4.07,0,0,0,4,17a4,4,0,0,0,4,4c4.58,0,12-5.08,12-12A6,6,0,0,0,14,3Zm0,8a2,2,0,1,1,2-2A2,2,0,0,1,14,11Z" style="fill: #e65967; stroke-width: 2;"/>
<path id="primary" d="M14,7a2,2,0,1,1-2,2A2,2,0,0,1,14,7Zm0-4A6,6,0,0,0,8,8.31a8.49,8.49,0,0,1-.85,3.28,16.92,16.92,0,0,1-2,2.55A4.07,4.07,0,0,0,4,17a4,4,0,0,0,4,4c4.58,0,12-5.08,12-12A6,6,0,0,0,14,3Z" style="fill: none; stroke: #000000; stroke-linecap: round; stroke-linejoin: round; stroke-width: 2;"/>
</g>
</svg>